PathFileType  4	(X/Y/Z) C:\Users\antoi\Documents\MyRepositories\mobilecap\ResultsAnalysis
DataRate	CameraRate	NumFrames	NumMarkers	Units	OrigDataRate	OrigDataStartFrame	OrigNumFrames
100.0	100.0	4	51	mm	100.0	228	260
Frame#	Time	r_knee			r_shank_antsup			r_ankle			r_calc			r_5meta			r_toe			L_knee			L_shank_antsup			L_ankle			L_calc			L_5meta			L_toe			r_sh2			r_sh3			r_sh4			L_sh2			L_sh3			r_thigh1			r_thigh2			r_thigh3			r_thigh4			r_thigh5			L_thigh1			L_thigh2			L_thigh3			L_thigh4			r.ASIS			r.PSIS			L.ASIS			L.PSIS			C7			R_Shoulder			L_Shoulder			R_Sternum			L_Sternum			R_humerus			R_elbow_med			R_elbow_lat			R_forearm			R_wrist_radius			R_wrist_ulna			L_humerus			L_elbow_med			L_elbow_lat			L_forearm			L_wrist_radius			L_wrist_ulna			R_HJC			L_HJC			R_HJC_reg			L_HJC_reg			
		X1	Y1	Z1	X2	Y2	Z2	X3	Y3	Z3	X4	Y4	Z4	X5	Y5	Z5	X6	Y6	Z6	X7	Y7	Z7	X8	Y8	Z8	X9	Y9	Z9	X10	Y10	Z10	X11	Y11	Z11	X12	Y12	Z12	X13	Y13	Z13	X14	Y14	Z14	X15	Y15	Z15	X16	Y16	Z16	X17	Y17	Z17	X18	Y18	Z18	X19	Y19	Z19	X20	Y20	Z20	X21	Y21	Z21	X22	Y22	Z22	X23	Y23	Z23	X24	Y24	Z24	X25	Y25	Z25	X26	Y26	Z26	X27	Y27	Z27	X28	Y28	Z28	X29	Y29	Z29	X30	Y30	Z30	X31	Y31	Z31	X32	Y32	Z32	X33	Y33	Z33	X34	Y34	Z34	X35	Y35	Z35	X36	Y36	Z36	X37	Y37	Z37	X38	Y38	Z38	X39	Y39	Z39	X40	Y40	Z40	X41	Y41	Z41	X42	Y42	Z42	X43	Y43	Z43	X44	Y44	Z44	X45	Y45	Z45	X46	Y46	Z46	X47	Y47	Z47	X48	Y48	Z48	X49	Y49	Z49	X50	Y50	Z50	X51	Y51	Z51	

228	2.27000000	-183.39814	794.81612	-349.93855	-158.82262	700.15176	-338.97886	-253.81219	388.33223	-345.73600	-301.32843	413.93458	-405.63979	-216.30976	249.95106	-323.50541	-155.11498	259.61036	-354.59303	-120.36614	807.66664	-732.64129	-88.53833	721.00013	-738.92744	-188.71915	395.79971	-772.75137	-263.51028	381.95964	-714.57224	-120.00690	291.99938	-813.92105	-58.75589	301.51484	-769.43255	-171.36068	587.17663	-333.32571	-230.89352	708.55001	-317.11161	-250.41216	596.48537	-309.33409	-171.69507	749.57345	-761.06193	-194.00420	631.16927	-782.89149	-105.78013	1070.15571	-345.08326	-106.29566	958.90490	-351.60772	-161.95246	932.90884	-323.50584	-219.04947	1065.80473	-337.69719	-211.37488	950.32975	-344.82056	-66.10875	1059.01286	-721.41612	-43.57014	920.19026	-718.38757	-172.26328	1043.10277	-745.31282	-151.14585	911.30384	-736.32933	-67.93326	1271.44498	-412.70549	-262.46383	1302.29136	-489.86704	-66.76690	1281.73745	-660.04916	-260.88083	1301.50006	-580.00729	-237.57183	1755.74383	-530.08430	-158.81855	1753.06749	-385.73610	-187.77187	1760.67648	-648.21484	-96.38671	1707.95715	-509.50466	-94.89610	1710.53172	-556.23899	-65.06359	1762.51573	-328.63968	132.06408	1671.52987	-310.45230	118.12196	1699.57592	-247.62666	151.98904	1786.86421	-264.16029	226.87268	1908.67797	-346.94564	263.94541	1896.23470	-316.07055	-132.11930	1814.29417	-701.16164	45.59958	1848.13971	-799.46311	-14.89128	1899.59356	-818.97993	-6.76987	1945.55670	-758.02057	65.48092	2028.38384	-617.39479	52.38309	2061.54474	-656.19604	-142.04915	1182.64342	-437.65320	-140.99035	1190.53587	-627.04855	-138.66048	1202.33780	-447.97097	-135.76791	1200.88349	-611.32292	
229	2.28000000	-180.82373	793.91334	-349.96190	-156.14168	698.97761	-340.58711	-254.51357	387.54675	-345.18504	-301.48201	413.12869	-405.27658	-216.45914	250.24967	-321.37812	-155.60023	259.08980	-352.97895	-117.95924	807.56923	-730.55679	-85.68677	720.79062	-736.67504	-185.23832	395.79832	-770.63898	-260.25374	378.16470	-713.00453	-113.57781	296.28119	-815.07201	-53.05339	305.78146	-769.26940	-168.91027	586.23456	-334.18149	-227.17347	707.93428	-316.05152	-247.03095	595.96035	-307.88070	-168.89416	748.99681	-759.26090	-190.53858	630.61099	-781.12502	-103.93778	1069.63423	-345.32339	-104.53921	958.33311	-351.91948	-159.56676	932.19231	-323.27183	-217.17622	1065.16351	-336.33286	-209.43390	949.57686	-343.77583	-63.31875	1058.86597	-718.73206	-40.99612	920.07442	-715.15586	-168.93069	1043.07594	-745.01560	-148.17915	911.26231	-735.30834	-67.68004	1271.58686	-412.61889	-261.26347	1303.30174	-487.74311	-65.27754	1281.67713	-658.22396	-260.24445	1303.92169	-580.38400	-236.62235	1755.57614	-528.59230	-155.48808	1752.79631	-384.09168	-187.86592	1760.45115	-647.58565	-95.03946	1708.49346	-507.57834	-93.08553	1711.77081	-553.90295	-60.30184	1759.18627	-327.80203	134.32284	1663.79653	-311.03092	120.77359	1691.73227	-247.73796	155.15269	1778.66111	-263.46824	231.28718	1900.24594	-345.21599	268.08276	1887.36846	-314.33529	-132.55749	1814.37502	-700.41668	43.57293	1848.46595	-802.34903	-17.09195	1900.38575	-819.49287	-8.54400	1946.44681	-759.12874	64.80408	2027.60452	-618.21534	52.06788	2061.40925	-657.04125	-142.24492	1183.19235	-436.85435	-140.76537	1191.35075	-626.23531	-137.11924	1201.51002	-448.26726	-135.34368	1202.58869	-610.49511	
230	2.29000000	-178.59966	792.05298	-349.85726	-153.31432	696.78496	-342.32366	-254.12857	385.72674	-344.86178	-301.44122	411.21894	-404.43569	-215.77421	249.42285	-319.30002	-155.14990	257.73559	-351.62828	-115.63181	806.25869	-728.61328	-82.31701	719.07149	-733.89848	-181.84430	394.55226	-768.22353	-256.75788	373.18185	-710.55384	-107.45517	299.31722	-815.21875	-47.39385	309.50086	-768.98563	-166.34102	584.26782	-335.41635	-223.14327	706.16695	-314.71944	-243.16155	594.26637	-306.12852	-165.38568	747.02113	-757.99370	-186.37936	628.61270	-779.67352	-102.50901	1068.08454	-345.45632	-103.29418	956.71919	-352.02587	-158.04104	930.56407	-322.98737	-215.72762	1063.67188	-335.45591	-208.06268	947.94981	-343.02143	-60.75606	1057.61072	-716.36995	-38.70623	918.82653	-712.30441	-165.84588	1042.03730	-744.55125	-145.60158	910.13911	-734.07480	-67.45862	1270.63973	-411.76428	-260.41680	1304.23380	-486.11566	-64.26328	1280.79124	-656.60159	-259.48336	1306.11433	-580.32551	-235.65030	1754.37431	-527.31520	-152.89427	1751.55360	-383.01114	-187.83616	1759.13900	-646.74970	-93.81251	1707.74532	-506.05361	-91.90827	1711.38643	-552.45788	-55.51990	1754.95372	-327.21041	136.53475	1655.37444	-311.69516	123.37071	1683.22062	-248.04255	157.90215	1769.76001	-262.92338	235.64985	1890.80849	-343.63035	272.18048	1877.47223	-312.60465	-132.69047	1813.22696	-699.43636	41.70346	1847.81781	-804.85598	-19.13113	1900.15931	-819.74932	-10.25181	1946.47864	-760.00828	63.99080	2026.15603	-618.82569	51.63073	2060.61041	-658.12093	-143.10701	1183.06143	-435.98233	-141.09416	1191.57610	-625.34244	-136.77618	1200.01752	-448.19825	-135.18450	1203.25436	-609.90535	
231	2.30000000	-177.10936	789.24555	-349.65973	-150.82504	693.83785	-343.61139	-252.63193	383.29000	-344.22308	-301.10877	408.23002	-403.20925	-214.31094	247.43166	-317.37362	-153.85029	255.55071	-350.46596	-112.93651	803.77680	-726.70838	-78.44122	716.04260	-730.87363	-178.63753	392.29811	-765.70068	-253.18850	367.35180	-707.76365	-101.80685	301.09610	-814.31565	-42.03824	312.37091	-768.20872	-163.92907	581.34837	-336.56787	-219.49946	703.29799	-313.35508	-239.65147	591.44338	-304.50672	-160.91178	744.08445	-757.12650	-181.79806	625.58425	-778.62733	-101.54234	1065.26178	-345.34997	-102.49997	954.03706	-351.91416	-157.34997	927.96993	-322.53558	-214.74409	1061.23012	-334.93061	-207.26375	945.43179	-342.47448	-58.33602	1055.21253	-714.09916	-36.51488	916.54769	-709.74717	-162.93974	1039.89490	-743.95760	-143.13706	907.90199	-732.84441	-67.09153	1268.60817	-410.49560	-259.73369	1304.99585	-485.09390	-63.88082	1278.88859	-654.74013	-258.56501	1307.45598	-579.75239	-234.67092	1752.14037	-526.22456	-150.85877	1749.50987	-382.03908	-187.77267	1756.72593	-645.65057	-93.35310	1705.64122	-505.73971	-91.95975	1708.43880	-553.19873	-50.88304	1749.98816	-326.39285	138.44911	1646.18154	-312.54521	125.83673	1673.86146	-248.61140	160.47914	1759.96250	-262.77367	239.98284	1880.24341	-342.24944	276.29515	1866.36732	-311.03831	-132.72147	1811.00702	-698.29722	40.05173	1846.09422	-806.68811	-20.86662	1898.83044	-819.82381	-11.80980	1945.51611	-760.67197	63.07133	2023.92591	-619.29934	51.35824	2058.88430	-658.63342	-144.38049	1182.20536	-434.87955	-141.84728	1190.89323	-624.22593	-137.46866	1198.55416	-447.44933	-135.47306	1202.74854	-608.74113	
